<svg xmlns="http://www.w3.org/2000/svg" width="58.072" height="79.905" viewBox="0 0 58.072 79.905">
  <g id="Chair-V2" transform="translate(0.5 0.5)">
    <path id="Path_993" data-name="Path 993" d="M9028.471,498.485l7.026,4.043,23.992-17.067-6.959-3.877Z" transform="translate(-9028.471 -481.584)" fill="#d9e3ff" stroke="#000" stroke-linejoin="round" stroke-width="1"/>
    <path id="Path_994" data-name="Path 994" d="M9063.449,544.455v15.991l22.013-15.991V528.576Z" transform="translate(-9028.471 -481.584)" fill="#d9e3ff" stroke="#000" stroke-linejoin="round" stroke-width="1"/>
    <path id="Path_995" data-name="Path 995" d="M9035.506,502.674v21.842l16.008,8v6l11.94,6.031v15.94l-34.928-17.922.014-44.181Z" transform="translate(-9028.471 -481.584)" fill="#d9e3ff" stroke="#000" stroke-linecap="round" stroke-linejoin="round" stroke-width="1"/>
    <path id="Path_996" data-name="Path 996" d="M9059.46,485.614V515.6l-11.848,7.927-6.161-3.016-5.858,3.877V502.458Z" transform="translate(-9028.471 -481.584)" fill="#d9e3ff" stroke="#000" stroke-linejoin="round" stroke-width="1"/>
    <path id="Path_997" data-name="Path 997" d="M9051.57,532.486l5.866-3.91v5.9l-5.866,3.91Z" transform="translate(-9028.471 -481.584)" fill="#d9e3ff" stroke="#000" stroke-linejoin="round" stroke-width="1"/>
    <path id="Path_998" data-name="Path 998" d="M9059.5,515.506l26.038,13.021-21.982,15.981-12.007-5.991,6.042-4.054V528.5l-10.092-5.012Z" transform="translate(-9028.471 -481.584)" fill="#d9e3ff" stroke="#000" stroke-linejoin="round" stroke-width="1"/>
    <path id="Path_2010" data-name="Path 2010" d="M7.007,42.912l6.013-4,15.919,7.9-5.806,4.154Z" fill="#d9e3ff" stroke="#000" stroke-linejoin="round" stroke-width="1"/>
  </g>
</svg>
