<svg xmlns="http://www.w3.org/2000/svg" width="606.325" height="176.7" viewBox="0 0 606.325 176.7">
  <g id="Group_98" data-name="Group 98" transform="translate(-9932 -1726.387)">
    <path id="Union_8" data-name="Union 8" d="M248.558,173.017h-6.514s-.862,4.119-4.791,3.257c-3.525-.387-2.107-11.209-2.107-11.209l4.5-4.215.76-20.524,2.374-5.626-24.133-2.755a15.859,15.859,0,0,1-.84,4.776c-.432,1.339,2.109,3.946,2.428,8.257,1.136,7.584-2.841,12.249-3.562,13.6-1.824,3.418-12.509,10.04-20.4,9.391s-16.756-4.857-19.427-15.057c-2.282-8.712,5.711-21.321,8.092-24.814L0,106.986l.746-5.3,270.788,22.449a32.279,32.279,0,0,1-.718-15.057L195.041,96.123l.276-1.973,77.566,8.213a32.974,32.974,0,0,1,26.341-19.511L302.053,0h1.992L306.5,82.769a32.973,32.973,0,0,1,27.336,20.125l82.571-8.743.278,1.973-80.853,13.819a32.289,32.289,0,0,1-.867,14.175L605.58,101.682l.745,5.3L420.048,128.251c2.5,3.695,10.238,16.072,7.988,24.662-2.671,10.2-11.537,14.408-19.427,15.057q-.547.045-1.11.044c-7.749,0-17.55-6.174-19.29-9.435-.721-1.35-4.7-6.015-3.562-13.6.32-4.311,2.86-6.918,2.428-8.257a16.041,16.041,0,0,1-.838-4.612l-22.077,2.52,2.4,5.7.76,20.524,4.5,4.215s1.418,10.823-2.108,11.209c-3.928.862-4.79-3.257-4.79-3.257h-6.514s-1.3,3.683-3.773,3.683a3.063,3.063,0,0,1-1.5-.426c-3.448-1.916-1.533-12.071-1.533-12.071l3.736-3.352v-6.9l-9.436-9.913-3.245,2.235s-2.563-1.054-6.419.862c-1.612.8-5.447,4.077-9.658,5.051-3.352.776-12.292.913-18.207.913l-1.344,0-.858,15.367,1.724,1.935s.543,4.968-.806,5.145c-1.5.4-1.833-1.495-1.833-1.495H300s-.7,2.375-2.016,1.495-.587-5.54-.587-5.54l1.429-1.54L297.179,153.1c-5.9-.012-14.234-.169-17.443-.912-4.211-.974-8.046-4.25-9.658-5.051-3.856-1.916-6.419-.862-6.419-.862L260.8,144.31l-9.18,9.644v6.9l3.737,3.352s1.915,10.155-1.534,12.071a3.066,3.066,0,0,1-1.5.426C249.855,176.7,248.558,173.017,248.558,173.017Z" transform="translate(9932 1726.387)" fill="#fff"/>
    <g id="Group_97" data-name="Group 97">
      <text id="Flight" transform="translate(10016 1797)" fill="#fff" font-size="50" font-family="SegoeUI, Segoe UI" letter-spacing="0.1em"><tspan x="0" y="0">Flight</tspan></text>
      <text id="Pool" transform="translate(10318 1797)" fill="#fff" font-size="50" font-family="SegoeUI, Segoe UI" letter-spacing="0.1em"><tspan x="0" y="0">Pool</tspan></text>
    </g>
  </g>
</svg>
